<svg width="26" height="40" viewBox="0 0 26 40" fill="none" xmlns="http://www.w3.org/2000/svg">
<path d="M12.3819 18.4723C7.62376 18.4723 3.75287 14.6002 3.75287 9.84032C3.75287 5.08175 7.62376 1.21017 12.3819 1.21017C17.1401 1.21017 21.0114 5.08175 21.0114 9.84032C21.0114 14.6002 17.1401 18.4723 12.3819 18.4723ZM1.20997 38.7894V31.0925C1.20997 24.801 6.32756 19.6825 12.6184 19.6825C18.9087 19.6825 24.0268 24.801 24.0268 31.0925V38.7894H1.20997ZM0.604984 40H24.6317C24.9649 40 25.2367 39.7285 25.2367 39.3949V31.0925C25.2367 25.4683 21.4789 20.5004 16.0794 18.958C19.7597 17.4586 22.2214 13.8145 22.2214 9.84032C22.2214 4.41448 17.8072 -5.83668e-07 12.3819 -5.83668e-07C6.9566 -5.83668e-07 2.54246 4.41448 2.54246 9.84032C2.54246 13.9125 5.08447 17.5894 8.88409 19.0392C6.39019 19.8146 4.14909 21.3879 2.55971 23.4819C0.885012 25.6898 0 28.3212 0 31.0925V39.3949C0 39.7285 0.270951 40 0.604984 40" fill="#95CAFF"/>
</svg>
