<svg width="59" height="59" viewBox="0 0 59 59" fill="none" xmlns="http://www.w3.org/2000/svg">
<path d="M56.5 0H2.5C1.947 0 1.5 0.447 1.5 1V11V58C1.5 58.553 1.947 59 2.5 59H56.5C57.053 59 57.5 58.553 57.5 58V11V1C57.5 0.447 57.053 0 56.5 0ZM3.5 2H55.5V10H3.5V2ZM3.5 57V12H55.5V57H3.5Z" fill="black"/>
<path d="M10.5 3H6.5C5.947 3 5.5 3.447 5.5 4V8C5.5 8.553 5.947 9 6.5 9H10.5C11.053 9 11.5 8.553 11.5 8V4C11.5 3.447 11.053 3 10.5 3ZM9.5 7H7.5V5H9.5V7Z" fill="black"/>
<path d="M17.5 3H13.5C12.947 3 12.5 3.447 12.5 4V8C12.5 8.553 12.947 9 13.5 9H17.5C18.053 9 18.5 8.553 18.5 8V4C18.5 3.447 18.053 3 17.5 3ZM16.5 7H14.5V5H16.5V7Z" fill="black"/>
<path d="M53.5 3H29.5C28.947 3 28.5 3.447 28.5 4V8C28.5 8.553 28.947 9 29.5 9H53.5C54.053 9 54.5 8.553 54.5 8V4C54.5 3.447 54.053 3 53.5 3ZM52.5 7H30.5V5H52.5V7Z" fill="black"/>
<path d="M51.5 17H7.5C6.947 17 6.5 17.447 6.5 18V38.102V42.761V53C6.5 53.553 6.947 54 7.5 54H19.418H23.783H28.418H32.783H37.418H41.783H46.418H50.783H51.5C52.053 54 52.5 53.553 52.5 53V18C52.5 17.447 52.053 17 51.5 17ZM50.5 19V32H48.5V28C48.5 26.141 47.221 24.589 45.5 24.142V22H46.5C47.053 22 47.5 21.553 47.5 21C47.5 20.447 47.053 20 46.5 20H42.5C41.947 20 41.5 20.447 41.5 21C41.5 21.553 41.947 22 42.5 22H43.5V24.142C41.779 24.589 40.5 26.141 40.5 28V32H38.5V28C38.5 26.141 37.221 24.589 35.5 24.142V22H36.5C37.053 22 37.5 21.553 37.5 21C37.5 20.447 37.053 20 36.5 20H32.5C31.947 20 31.5 20.447 31.5 21C31.5 21.553 31.947 22 32.5 22H33.5V24.142C31.779 24.589 30.5 26.141 30.5 28V32H28.5V28C28.5 26.141 27.221 24.589 25.5 24.142V22H26.5C27.053 22 27.5 21.553 27.5 21C27.5 20.447 27.053 20 26.5 20H22.5C21.947 20 21.5 20.447 21.5 21C21.5 21.553 21.947 22 22.5 22H23.5V24.142C21.779 24.589 20.5 26.141 20.5 28V32H18.5V28C18.5 26.141 17.221 24.589 15.5 24.142V22H16.5C17.053 22 17.5 21.553 17.5 21C17.5 20.447 17.053 20 16.5 20H12.5C11.947 20 11.5 20.447 11.5 21C11.5 21.553 11.947 22 12.5 22H13.5V24.142C11.779 24.589 10.5 26.141 10.5 28V32H8.5V19H50.5ZM44.5 26C45.603 26 46.5 26.897 46.5 28V32H42.5V28C42.5 26.897 43.397 26 44.5 26ZM34.5 26C35.603 26 36.5 26.897 36.5 28V32H32.5V28C32.5 26.897 33.397 26 34.5 26ZM24.5 26C25.603 26 26.5 26.897 26.5 28V32H22.5V28C22.5 26.897 23.397 26 24.5 26ZM14.5 26C15.603 26 16.5 26.897 16.5 28V32H12.5V28C12.5 26.897 13.397 26 14.5 26ZM16.682 38.831C16.806 38.882 16.926 38.941 17.047 38.996C17.229 39.079 17.411 39.164 17.588 39.257C17.69 39.31 17.79 39.366 17.89 39.422C18.115 39.549 18.336 39.682 18.551 39.824C18.594 39.852 18.638 39.879 18.681 39.908C19.439 40.425 20.122 41.04 20.728 41.725C20.917 41.938 21.096 42.158 21.266 42.383C21.302 42.43 21.337 42.477 21.372 42.525C21.535 42.748 21.689 42.976 21.834 43.209C21.87 43.268 21.906 43.327 21.942 43.386C22.077 43.613 22.205 43.843 22.323 44.078C22.36 44.152 22.396 44.228 22.432 44.303C22.539 44.529 22.64 44.756 22.732 44.988C22.77 45.084 22.803 45.181 22.838 45.278C22.917 45.496 22.992 45.715 23.057 45.937C23.094 46.063 23.123 46.191 23.155 46.319C23.205 46.518 23.256 46.716 23.295 46.918C23.296 46.921 23.296 46.924 23.297 46.927C23.331 47.103 23.353 47.282 23.379 47.46C23.397 47.587 23.418 47.713 23.432 47.841C23.437 47.889 23.444 47.936 23.448 47.984C23.479 48.32 23.5 48.657 23.5 49C23.5 49.443 23.46 49.891 23.401 50.339C23.389 50.428 23.379 50.518 23.365 50.607C23.296 51.04 23.202 51.474 23.078 51.908C23.069 51.939 23.058 51.969 23.049 52H20.961C21.305 51.038 21.5 50.026 21.5 49C21.5 44.037 17.463 40 12.5 40C11.087 40 9.733 40.328 8.5 40.945V38.762C9.784 38.256 11.127 38 12.5 38C13.981 38 15.392 38.298 16.682 38.831ZM19.75 38.215C19.725 38.198 19.703 38.177 19.677 38.16C20.282 38.054 20.891 38 21.5 38C22.981 38 24.392 38.298 25.682 38.831C25.806 38.882 25.926 38.941 26.047 38.996C26.229 39.079 26.411 39.164 26.588 39.257C26.69 39.31 26.79 39.366 26.89 39.422C27.115 39.549 27.336 39.682 27.551 39.824C27.594 39.852 27.638 39.879 27.681 39.908C28.439 40.425 29.122 41.04 29.728 41.725C29.917 41.938 30.096 42.158 30.266 42.383C30.302 42.43 30.337 42.477 30.372 42.525C30.535 42.748 30.689 42.976 30.834 43.209C30.87 43.268 30.906 43.327 30.942 43.386C31.077 43.613 31.205 43.843 31.323 44.078C31.36 44.152 31.396 44.228 31.432 44.303C31.539 44.529 31.64 44.756 31.732 44.988C31.77 45.084 31.803 45.181 31.838 45.278C31.917 45.496 31.992 45.715 32.057 45.937C32.094 46.063 32.123 46.191 32.155 46.319C32.205 46.518 32.256 46.716 32.295 46.918C32.296 46.921 32.296 46.924 32.297 46.927C32.331 47.103 32.353 47.282 32.379 47.46C32.397 47.587 32.418 47.713 32.432 47.841C32.437 47.889 32.444 47.936 32.448 47.984C32.479 48.32 32.5 48.657 32.5 49C32.5 49.443 32.46 49.891 32.401 50.339C32.389 50.428 32.379 50.518 32.365 50.607C32.296 51.04 32.202 51.474 32.078 51.908C32.069 51.939 32.058 51.969 32.049 52H29.961C30.305 51.038 30.5 50.026 30.5 49C30.5 44.167 26.669 40.224 21.886 40.02C21.861 39.994 21.834 39.971 21.809 39.945C21.678 39.81 21.541 39.683 21.404 39.554C21.206 39.368 21.011 39.179 20.801 39.005C20.464 38.725 20.114 38.46 19.75 38.215ZM28.75 38.215C28.725 38.198 28.703 38.177 28.677 38.16C29.282 38.054 29.891 38 30.5 38C31.981 38 33.392 38.298 34.682 38.831C34.806 38.882 34.926 38.941 35.047 38.996C35.229 39.079 35.411 39.164 35.588 39.257C35.69 39.31 35.79 39.366 35.89 39.422C36.115 39.549 36.336 39.682 36.551 39.824C36.594 39.852 36.638 39.879 36.681 39.908C37.439 40.425 38.122 41.04 38.728 41.725C38.917 41.938 39.096 42.158 39.266 42.383C39.302 42.43 39.337 42.477 39.372 42.525C39.535 42.748 39.689 42.976 39.834 43.209C39.87 43.268 39.906 43.327 39.942 43.386C40.077 43.613 40.205 43.843 40.323 44.078C40.36 44.152 40.396 44.228 40.432 44.303C40.539 44.529 40.64 44.756 40.732 44.988C40.77 45.084 40.803 45.181 40.838 45.278C40.917 45.496 40.992 45.715 41.057 45.937C41.094 46.063 41.123 46.191 41.155 46.319C41.205 46.518 41.256 46.716 41.295 46.918C41.296 46.921 41.296 46.924 41.297 46.927C41.331 47.103 41.353 47.282 41.379 47.46C41.397 47.587 41.418 47.713 41.432 47.841C41.437 47.889 41.444 47.936 41.448 47.984C41.479 48.32 41.5 48.657 41.5 49C41.5 49.443 41.46 49.891 41.401 50.339C41.389 50.428 41.379 50.518 41.365 50.607C41.296 51.04 41.202 51.474 41.078 51.908C41.069 51.939 41.058 51.969 41.049 52H38.961C39.305 51.038 39.5 50.026 39.5 49C39.5 44.167 35.669 40.224 30.886 40.02C30.861 39.994 30.834 39.971 30.809 39.945C30.678 39.81 30.541 39.683 30.404 39.554C30.206 39.368 30.011 39.179 29.801 39.005C29.464 38.725 29.114 38.46 28.75 38.215ZM8.5 52V43.26C9.677 42.434 11.051 42 12.5 42C16.359 42 19.5 45.141 19.5 49C19.5 50.038 19.266 51.064 18.817 52H8.5ZM25.128 52C25.146 51.927 25.152 51.853 25.169 51.779C25.25 51.425 25.316 51.071 25.366 50.717C25.384 50.592 25.402 50.466 25.416 50.341C25.466 49.893 25.5 49.446 25.5 49C25.5 48.61 25.476 48.223 25.441 47.837C25.431 47.726 25.42 47.615 25.407 47.504L25.406 47.497C25.398 47.43 25.394 47.362 25.385 47.294C25.352 47.044 25.308 46.796 25.26 46.549C25.236 46.425 25.21 46.303 25.183 46.181C25.171 46.127 25.156 46.072 25.144 46.018C25.111 45.879 25.08 45.739 25.043 45.602C25.021 45.521 24.996 45.442 24.972 45.362C24.926 45.204 24.876 45.047 24.824 44.891C24.785 44.776 24.746 44.662 24.704 44.548C24.643 44.38 24.582 44.212 24.514 44.047C24.447 43.886 24.37 43.732 24.298 43.574C24.225 43.416 24.155 43.257 24.076 43.102C23.956 42.866 23.826 42.638 23.692 42.411C23.678 42.387 23.666 42.362 23.652 42.338C26.462 43.248 28.5 45.891 28.5 49C28.5 50.038 28.266 51.064 27.817 52H25.128ZM34.128 52C34.146 51.927 34.152 51.853 34.169 51.779C34.25 51.425 34.316 51.071 34.366 50.717C34.384 50.592 34.402 50.466 34.416 50.341C34.466 49.893 34.5 49.446 34.5 49C34.5 48.61 34.476 48.223 34.441 47.837C34.431 47.726 34.42 47.615 34.407 47.504L34.406 47.497C34.398 47.43 34.394 47.362 34.385 47.294C34.352 47.044 34.308 46.796 34.26 46.549C34.236 46.425 34.21 46.303 34.183 46.181C34.171 46.127 34.156 46.072 34.144 46.018C34.111 45.879 34.08 45.739 34.043 45.602C34.021 45.521 33.996 45.442 33.972 45.362C33.926 45.204 33.876 45.047 33.824 44.891C33.785 44.776 33.746 44.662 33.704 44.548C33.643 44.38 33.582 44.212 33.514 44.047C33.447 43.886 33.37 43.732 33.298 43.574C33.225 43.416 33.155 43.257 33.076 43.102C32.956 42.866 32.826 42.638 32.692 42.411C32.678 42.387 32.666 42.362 32.652 42.338C35.462 43.248 37.5 45.891 37.5 49C37.5 50.038 37.266 51.064 36.817 52H34.128ZM43.128 52C43.146 51.927 43.152 51.853 43.169 51.779C43.25 51.425 43.316 51.071 43.366 50.717C43.384 50.592 43.402 50.466 43.416 50.341C43.466 49.893 43.5 49.446 43.5 49C43.5 48.61 43.476 48.223 43.441 47.837C43.431 47.726 43.42 47.615 43.407 47.504L43.406 47.497C43.398 47.43 43.394 47.362 43.385 47.294C43.352 47.044 43.308 46.796 43.26 46.549C43.236 46.425 43.21 46.303 43.183 46.181C43.171 46.127 43.156 46.072 43.144 46.018C43.111 45.879 43.08 45.739 43.043 45.602C43.021 45.521 42.996 45.442 42.972 45.362C42.926 45.204 42.876 45.047 42.824 44.891C42.785 44.776 42.746 44.662 42.704 44.548C42.643 44.38 42.582 44.212 42.514 44.047C42.447 43.886 42.37 43.732 42.298 43.574C42.225 43.416 42.155 43.257 42.076 43.102C41.956 42.866 41.826 42.638 41.692 42.411C41.678 42.387 41.666 42.362 41.652 42.338C44.462 43.248 46.5 45.891 46.5 49C46.5 50.038 46.266 51.064 45.817 52H43.128ZM50.058 52H47.961C48.305 51.038 48.5 50.026 48.5 49C48.5 44.167 44.669 40.224 39.886 40.02C39.861 39.994 39.834 39.971 39.809 39.945C39.678 39.81 39.541 39.683 39.404 39.554C39.206 39.368 39.011 39.179 38.801 39.005C38.464 38.725 38.114 38.46 37.75 38.215C37.725 38.198 37.703 38.177 37.677 38.16C38.282 38.054 38.891 38 39.5 38C45.565 38 50.5 42.935 50.5 49C50.5 49.99 50.352 50.996 50.058 52ZM39.5 36C37.993 36 36.492 36.288 35.031 36.831C33.617 36.303 32.095 36 30.5 36C28.993 36 27.492 36.288 26.031 36.831C24.617 36.303 23.095 36 21.5 36C19.993 36 18.492 36.288 17.031 36.831C15.617 36.303 14.095 36 12.5 36C11.133 36 9.794 36.219 8.5 36.643V34H11.5H17.5H21.5H27.5H31.5H37.5H41.5H47.5H50.5V42.104C48.197 38.445 44.133 36 39.5 36Z" fill="black"/>
</svg>
