<svg width="68" height="54" viewBox="0 0 68 54" fill="none" xmlns="http://www.w3.org/2000/svg">
<path d="M49.5029 4.0045L18.1269 0.108481C17.5011 0.0364078 16.8667 0 16.2416 0C7.28604 0 0 7.29849 0 16.2693V16.6063C0 22.6732 3.333 27.9745 8.26051 30.7714L12.5994 48.3115C13.0792 50.2515 14.286 51.8887 15.9972 52.9211C17.179 53.6343 18.5034 54 19.849 54C20.452 53.9998 21.0592 53.9264 21.6596 53.778L21.7788 53.7485C23.7188 53.2687 25.3561 52.062 26.3885 50.3509C27.4209 48.6395 27.7254 46.6287 27.2454 44.6887L24.1126 32.0241L49.5029 28.8713C50.2006 28.7847 50.7244 28.192 50.7244 27.4889V5.38707C50.7242 4.68399 50.2004 4.09106 49.5029 4.0045V4.0045ZM24.5404 45.3576C24.8417 46.5754 24.6506 47.8374 24.0027 48.9113C23.3546 49.9853 22.3272 50.7426 21.1093 51.0437L20.9901 51.0733C19.7728 51.3747 18.5106 51.1836 17.4366 50.5353C16.3628 49.8874 15.6054 48.8598 15.3043 47.6424L11.4746 32.1601C12.9828 32.6248 14.5836 32.8756 16.2418 32.8756C16.8671 32.8756 17.5014 32.8392 18.1395 32.7655L21.328 32.3696L24.5404 45.3576ZM47.9379 26.2577L17.8083 29.999C17.2878 30.0588 16.7606 30.0893 16.2415 30.0893C8.82242 30.0893 2.78632 24.0409 2.78632 16.6063V16.2693C2.78632 8.83487 8.82242 2.78632 16.2416 2.78632C16.7608 2.78632 17.288 2.81678 17.796 2.87511L47.9381 6.61788V26.2577H47.9379Z" fill="black"/>
<path d="M7.78424 16.4377C7.78424 21.5473 11.9411 25.7043 17.0508 25.7043C22.1605 25.7043 26.3174 21.5473 26.3174 16.4377C26.3174 11.3281 22.1604 7.17114 17.0508 7.17114C11.9412 7.17114 7.78424 11.3281 7.78424 16.4377ZM23.531 16.4377C23.531 20.0109 20.624 22.9179 17.0508 22.9179C13.4776 22.9179 10.5706 20.0111 10.5706 16.4377C10.5706 12.8643 13.4776 9.95746 17.0508 9.95746C20.624 9.95746 23.531 12.8645 23.531 16.4377Z" fill="black"/>
<path d="M54.0817 12.0414C54.8916 12.0414 55.2817 12.4774 56.0184 13.3843C56.8316 14.3855 57.9456 15.7565 60.1178 15.7565C62.29 15.7565 63.4038 14.3855 64.2172 13.3843C64.9539 12.4772 65.344 12.0414 66.1539 12.0414C66.9233 12.0414 67.5471 11.4179 67.5471 10.6483C67.5471 9.87871 66.9233 9.25513 66.1539 9.25513C63.9817 9.25513 62.8679 10.6262 62.0545 11.6274C61.3178 12.5344 60.9277 12.9702 60.1178 12.9702C59.3079 12.9702 58.9178 12.5343 58.1811 11.6274C57.3679 10.6262 56.2539 9.25513 54.0819 9.25513C53.3125 9.25513 52.6888 9.87871 52.6888 10.6483C52.6888 11.4179 53.3123 12.0414 54.0817 12.0414V12.0414Z" fill="black"/>
<path d="M66.1539 17.6704C63.9817 17.6704 62.8679 19.0415 62.0545 20.0427C61.3178 20.9497 60.9277 21.3855 60.1178 21.3855C59.3079 21.3855 58.9178 20.9495 58.1811 20.0427C57.3679 19.0415 56.2539 17.6704 54.0819 17.6704C53.3125 17.6704 52.6888 18.294 52.6888 19.0636C52.6888 19.8332 53.3125 20.4567 54.0819 20.4567C54.8918 20.4567 55.2819 20.8927 56.0186 21.7996C56.8318 22.8008 57.9458 24.1718 60.118 24.1718C62.2902 24.1718 63.404 22.8008 64.2174 21.7996C64.9541 20.8925 65.3442 20.4567 66.1541 20.4567C66.9235 20.4567 67.5473 19.8332 67.5473 19.0636C67.5473 18.294 66.9233 17.6704 66.1539 17.6704V17.6704Z" fill="black"/>
</svg>
