<svg width="26" height="45" viewBox="0 0 26 45" fill="none" xmlns="http://www.w3.org/2000/svg">
<path d="M24.7573 35.1968H1.13441C0.513612 35.1968 0.0115714 35.7042 0.0115714 36.3196C0.0115714 38.6301 0.918482 40.8056 2.55956 42.4521C4.20603 44.0985 6.38153 45 8.69199 45H17.1943C19.5047 45 21.6802 44.0931 23.3267 42.4521C24.9732 40.8056 25.8747 38.6301 25.8747 36.3196C25.8801 35.7042 25.3781 35.1968 24.7573 35.1968ZM22.7221 41.8421C21.243 43.3212 19.278 44.1417 17.1997 44.1417H8.69199C6.61366 44.1417 4.65409 43.3266 3.16956 41.8421C1.69043 40.3629 0.869896 38.398 0.869896 36.3196C0.869896 36.1739 0.988659 36.0605 1.12901 36.0605H24.7465C24.8922 36.0605 25.0056 36.1793 25.0056 36.3196C25.0164 38.4034 24.2012 40.3629 22.7221 41.8421Z" fill="black"/>
<path d="M11.6125 38.765C11.5045 38.873 11.5045 39.0403 11.6125 39.1483C11.7204 39.2562 11.8878 39.2562 11.9957 39.1483C12.1037 39.0403 12.1037 38.873 11.9957 38.765C11.8878 38.6624 11.715 38.6624 11.6125 38.765ZM12.908 14.1327C13.68 14.1327 14.3116 13.5065 14.3116 12.7345C14.3116 11.9626 13.68 11.3364 12.908 11.3364C12.1361 11.3364 11.5045 11.9626 11.5045 12.7345C11.5045 13.5065 12.1361 14.1327 12.908 14.1327V14.1327ZM12.908 11.9896C13.3237 11.9896 13.6638 12.3243 13.6638 12.7399C13.6638 13.1556 13.3237 13.4903 12.908 13.4903C12.4924 13.4903 12.1523 13.1556 12.1523 12.7399C12.1523 12.3243 12.4924 11.9896 12.908 11.9896V11.9896ZM12.1523 8.96113C12.1523 8.18918 11.5207 7.56298 10.7487 7.56298C9.97678 7.56298 9.34518 8.18918 9.34518 8.96113C9.34518 9.73309 9.97678 10.3593 10.7487 10.3593C11.5207 10.3593 12.1523 9.72769 12.1523 8.96113ZM9.99297 8.96113C9.99297 8.55086 10.3331 8.21077 10.7487 8.21077C11.1644 8.21077 11.5045 8.54547 11.5045 8.96113C11.5045 9.3768 11.1644 9.71149 10.7487 9.71149C10.3331 9.71149 9.99297 9.3714 9.99297 8.96113ZM7.18587 5.18234C7.18587 5.9543 7.81747 6.58049 8.58942 6.58049C9.36137 6.58049 9.99297 5.9543 9.99297 5.18234C9.99297 4.41039 9.36137 3.78419 8.58942 3.78419C7.81747 3.78419 7.18587 4.41039 7.18587 5.18234ZM8.58942 4.43198C9.00509 4.43198 9.34518 4.76668 9.34518 5.18234C9.34518 5.59801 9.00509 5.9327 8.58942 5.9327C8.17375 5.9327 7.83366 5.59801 7.83366 5.18234C7.83366 4.76668 8.17375 4.43198 8.58942 4.43198ZM11.5045 5.18234C11.5045 5.9543 12.1361 6.58049 12.908 6.58049C13.68 6.58049 14.3116 5.9543 14.3116 5.18234C14.3116 4.41039 13.68 3.78419 12.908 3.78419C12.1361 3.78419 11.5045 4.41039 11.5045 5.18234V5.18234ZM12.908 4.43198C13.3237 4.43198 13.6638 4.76668 13.6638 5.18234C13.6638 5.59801 13.3237 5.9327 12.908 5.9327C12.4924 5.9327 12.1523 5.59801 12.1523 5.18234C12.1523 4.76668 12.4924 4.43198 12.908 4.43198V4.43198ZM15.8231 5.18234C15.8231 5.9543 16.4547 6.58049 17.2267 6.58049C17.9986 6.58049 18.6302 5.9543 18.6302 5.18234C18.6302 4.41039 17.9986 3.78419 17.2267 3.78419C16.4547 3.78419 15.8231 4.41039 15.8231 5.18234ZM17.2267 4.43198C17.6423 4.43198 17.9824 4.76668 17.9824 5.18234C17.9824 5.59801 17.6423 5.9327 17.2267 5.9327C16.811 5.9327 16.4709 5.59801 16.4709 5.18234C16.4709 4.76668 16.811 4.43198 17.2267 4.43198ZM19.386 2.79631C20.1579 2.79631 20.7895 2.17011 20.7895 1.39815C20.7895 0.6262 20.1579 0 19.386 0C18.614 0 17.9824 0.6262 17.9824 1.39815C17.9824 2.17011 18.614 2.79631 19.386 2.79631ZM19.386 0.653191C19.8016 0.653191 20.1417 0.987884 20.1417 1.40355C20.1417 1.81922 19.8016 2.15391 19.386 2.15391C18.9703 2.15391 18.6302 1.81922 18.6302 1.40355C18.6302 0.987884 18.9703 0.653191 19.386 0.653191V0.653191ZM15.0673 2.79631C15.8393 2.79631 16.4709 2.17011 16.4709 1.39815C16.4709 0.6262 15.8393 0 15.0673 0C14.2954 0 13.6638 0.6262 13.6638 1.39815C13.6638 2.17011 14.2954 2.79631 15.0673 2.79631ZM15.0673 0.653191C15.483 0.653191 15.8231 0.987884 15.8231 1.40355C15.8231 1.81922 15.483 2.15391 15.0673 2.15391C14.6517 2.15391 14.3116 1.81922 14.3116 1.40355C14.3116 0.987884 14.6517 0.653191 15.0673 0.653191V0.653191ZM10.7487 2.79631C11.5207 2.79631 12.1523 2.17011 12.1523 1.39815C12.1523 0.6262 11.5207 0 10.7487 0C9.97678 0 9.34518 0.6262 9.34518 1.39815C9.34518 2.17011 9.97678 2.79631 10.7487 2.79631ZM10.7487 0.653191C11.1644 0.653191 11.5045 0.987884 11.5045 1.40355C11.5045 1.81922 11.1644 2.15391 10.7487 2.15391C10.3331 2.15391 9.99297 1.81922 9.99297 1.40355C9.99297 0.987884 10.3331 0.653191 10.7487 0.653191V0.653191ZM6.43011 2.79631C7.20207 2.79631 7.83366 2.17011 7.83366 1.39815C7.83366 0.6262 7.20207 0 6.43011 0C5.65816 0 5.02656 0.6262 5.02656 1.39815C5.02656 2.17011 5.65816 2.79631 6.43011 2.79631ZM6.43011 0.653191C6.84578 0.653191 7.18587 0.987884 7.18587 1.40355C7.18587 1.81922 6.84578 2.15391 6.43011 2.15391C6.01445 2.15391 5.67435 1.81922 5.67435 1.40355C5.67435 0.987884 6.01445 0.653191 6.43011 0.653191V0.653191ZM16.4709 8.96113C16.4709 8.18918 15.8393 7.56298 15.0673 7.56298C14.2954 7.56298 13.6638 8.18918 13.6638 8.96113C13.6638 9.73309 14.2954 10.3593 15.0673 10.3593C15.8393 10.3593 16.4709 9.72769 16.4709 8.96113ZM14.3116 8.96113C14.3116 8.55086 14.6517 8.21077 15.0673 8.21077C15.483 8.21077 15.8231 8.54547 15.8231 8.96113C15.8231 9.3768 15.483 9.71149 15.0673 9.71149C14.6517 9.71149 14.3116 9.3714 14.3116 8.96113ZM0.707944 34.6407H25.1081C25.4752 34.6407 25.7883 34.3438 25.7991 33.9767C25.9287 30.2897 23.9961 28.0926 21.5345 25.2909C19.7476 23.2558 17.6369 20.8535 15.8069 17.2637C15.7259 17.1071 15.6504 16.9506 15.5694 16.7886C15.4506 16.5511 15.2131 16.4 14.9432 16.4H10.8621C10.5976 16.4 10.3547 16.5511 10.2359 16.7886C10.1603 16.9506 10.0793 17.1071 9.99837 17.2637C8.16836 20.8535 6.06303 23.2504 4.2708 25.2909C1.80379 28.0926 -0.123389 30.2897 0.00616912 33.9767C0.0277622 34.3438 0.34626 34.6407 0.707944 34.6407V34.6407ZM4.93479 25.8577C6.81339 23.72 9.03208 21.1936 10.9431 17.3446C10.9701 17.2961 11.0186 17.2637 11.0726 17.2637H14.7542C14.8082 17.2637 14.8622 17.2961 14.8838 17.3446C16.7894 21.199 19.0135 23.7254 20.8921 25.8577C23.2457 28.5353 24.9516 30.4732 24.9516 33.6312C24.9516 33.7122 24.8868 33.777 24.8058 33.777H1.02105C0.940071 33.777 0.875291 33.7122 0.875291 33.6312C0.875291 30.4732 2.57575 28.5407 4.93479 25.8577ZM11.0726 15.8601H14.7974C14.9162 15.8601 15.0134 15.763 15.0134 15.6442V15.2123C15.0134 15.0936 14.9162 14.9964 14.7974 14.9964H11.0726C10.9539 14.9964 10.8567 15.0936 10.8567 15.2123V15.6442C10.8567 15.763 10.9539 15.8601 11.0726 15.8601V15.8601Z" fill="black"/>
</svg>
