<svg width="62" height="62" viewBox="0 0 62 62" fill="none" xmlns="http://www.w3.org/2000/svg">
<g filter="url(#filter0_d_303_2336)">
<path d="M7.241 50.7602H54.2992V8.16714H7.241V50.7602ZM55.9197 54H5.6205C4.72497 54 4 53.2748 4 52.38V6.54713C4 5.65254 4.72497 4.92711 5.6205 4.92711H55.9197C56.8152 4.92711 57.5402 5.65254 57.5402 6.54713V52.38C57.5402 53.2748 56.8152 54 55.9197 54" fill="#1E1D1C"/>
<path d="M11.7898 4.92696H26.0448V3.2399H11.7898V4.92696ZM27.6653 8.16699H10.1693C9.27373 8.16699 8.54877 7.44156 8.54877 6.54698V1.61988C8.54877 0.725297 9.27373 -0.000129846 10.1693 -0.000129846H27.6653C28.5609 -0.000129846 29.2858 0.725297 29.2858 1.61988V6.54698C29.2858 7.44156 28.5609 8.16699 27.6653 8.16699" fill="#1E1D1C"/>
<path d="M35.4953 4.92696H49.7504V3.2399H35.4953V4.92696ZM51.3709 8.16699H33.8748C32.9817 8.16699 32.2544 7.44156 32.2544 6.54698V1.61988C32.2544 0.725297 32.9817 -0.000129846 33.8748 -0.000129846H51.3709C52.2665 -0.000129846 52.9914 0.725297 52.9914 1.61988V6.54698C52.9914 7.44156 52.2665 8.16699 51.3709 8.16699" fill="#1E1D1C"/>
<path d="M55.9197 20.8953H5.6205C4.72497 20.8953 4 20.1701 4 19.2753C4 18.3807 4.72497 17.6552 5.6205 17.6552H55.9197C56.8152 17.6552 57.5402 18.3807 57.5402 19.2753C57.5402 20.1701 56.8152 20.8953 55.9197 20.8953Z" fill="#1E1D1C"/>
<path d="M11.8016 46.1673H50.5607V25.2298H11.8016V46.1673ZM51.3709 47.7874H10.9913C10.5435 47.7874 10.1811 47.4249 10.1811 46.9773V24.4198C10.1811 23.9723 10.5435 23.6098 10.9913 23.6098H51.3709C51.8186 23.6098 52.1811 23.9723 52.1811 24.4198V46.9773C52.1811 47.4249 51.8186 47.7874 51.3709 47.7874Z" fill="#1E1D1C"/>
<path d="M16.3788 11.2667C15.4856 11.2667 14.7583 11.9935 14.7583 12.8867C14.7583 13.7798 15.4856 14.5067 16.3788 14.5067C17.2719 14.5067 17.9969 13.7798 17.9969 12.8867C17.9969 11.9935 17.2719 11.2667 16.3788 11.2667ZM16.3788 16.1267C14.5924 16.1267 13.1378 14.6732 13.1378 12.8867C13.1378 11.1001 14.5924 9.64664 16.3788 9.64664C18.1651 9.64664 19.6174 11.1001 19.6174 12.8867C19.6174 14.6732 18.1651 16.1267 16.3788 16.1267Z" fill="#1E1D1C"/>
<path d="M26.2462 11.2667C25.3531 11.2667 24.6281 11.9935 24.6281 12.8867C24.6281 13.7798 25.3531 14.5067 26.2462 14.5067C27.1394 14.5067 27.8667 13.7798 27.8667 12.8867C27.8667 11.9935 27.1394 11.2667 26.2462 11.2667ZM26.2462 16.1267C24.4599 16.1267 23.0076 14.6732 23.0076 12.8867C23.0076 11.1001 24.4599 9.64664 26.2462 9.64664C28.0326 9.64664 29.4872 11.1001 29.4872 12.8867C29.4872 14.6732 28.0326 16.1267 26.2462 16.1267Z" fill="#1E1D1C"/>
<path d="M36.116 11.2667C35.2229 11.2667 34.4955 11.9935 34.4955 12.8867C34.4955 13.7798 35.2229 14.5067 36.116 14.5067C37.0092 14.5067 37.7365 13.7798 37.7365 12.8867C37.7365 11.9935 37.0092 11.2667 36.116 11.2667ZM36.116 16.1267C34.3297 16.1267 32.8774 14.6732 32.8774 12.8867C32.8774 11.1001 34.3297 9.64664 36.116 9.64664C37.9024 9.64664 39.357 11.1001 39.357 12.8867C39.357 14.6732 37.9024 16.1267 36.116 16.1267Z" fill="#1E1D1C"/>
<path d="M45.9859 11.2667C45.0927 11.2667 44.3654 11.9935 44.3654 12.8867C44.3654 13.7798 45.0927 14.5067 45.9859 14.5067C46.879 14.5067 47.6064 13.7798 47.6064 12.8867C47.6064 11.9935 46.879 11.2667 45.9859 11.2667ZM45.9859 16.1267C44.1995 16.1267 42.7449 14.6732 42.7449 12.8867C42.7449 11.1001 44.1995 9.64664 45.9859 9.64664C47.7722 9.64664 49.2245 11.1001 49.2245 12.8867C49.2245 14.6732 47.7722 16.1267 45.9859 16.1267Z" fill="#1E1D1C"/>
</g>
<defs>
<filter id="filter0_d_303_2336" x="0" y="-0.000244141" width="61.5402" height="62.0002" filterUnits="userSpaceOnUse" color-interpolation-filters="sRGB">
<feFlood flood-opacity="0" result="BackgroundImageFix"/>
<feColorMatrix in="SourceAlpha" type="matrix" values="0 0 0 0 0 0 0 0 0 0 0 0 0 0 0 0 0 0 127 0" result="hardAlpha"/>
<feOffset dy="4"/>
<feGaussianBlur stdDeviation="2"/>
<feComposite in2="hardAlpha" operator="out"/>
<feColorMatrix type="matrix" values="0 0 0 0 0 0 0 0 0 0 0 0 0 0 0 0 0 0 0.25 0"/>
<feBlend mode="normal" in2="BackgroundImageFix" result="effect1_dropShadow_303_2336"/>
<feBlend mode="normal" in="SourceGraphic" in2="effect1_dropShadow_303_2336" result="shape"/>
</filter>
</defs>
</svg>
