<svg width="57" height="54" viewBox="0 0 57 54" fill="none" xmlns="http://www.w3.org/2000/svg">
<path d="M38.61 7.44088C38.2129 7.44088 37.8953 7.12323 37.8953 6.72618C37.8953 5.38412 36.9503 4.09765 35.2271 3.09706C33.3847 2.025 30.9229 1.43735 28.2944 1.43735C25.6659 1.43735 23.2041 2.025 21.3618 3.09706C19.6385 4.09765 18.6935 5.38412 18.6935 6.72618C18.6935 7.12323 18.3759 7.44088 17.9788 7.44088C17.5818 7.44088 17.2641 7.12323 17.2641 6.72618C17.2641 4.86 18.4632 3.12882 20.6391 1.85823C22.6959 0.659117 25.4118 0 28.2944 0C31.1771 0 33.8929 0.659117 35.9497 1.85823C38.1256 3.12882 39.3247 4.85206 39.3247 6.72618C39.3247 7.12323 39.0071 7.44088 38.61 7.44088Z" fill="black"/>
<path d="M19.8688 8.29052C19.7021 8.29052 19.5353 8.23493 19.4003 8.11581C19.0985 7.86169 19.0668 7.40905 19.3288 7.10728C21.195 4.94728 24.6574 3.60522 28.3738 3.60522C32.0109 3.60522 35.3224 4.84405 37.2441 6.9167C37.5141 7.20258 37.4982 7.65522 37.2044 7.92522C36.9185 8.19522 36.4659 8.17934 36.1959 7.88552C34.5679 6.13052 31.5662 5.03464 28.3738 5.03464C25.0624 5.03464 22.0129 6.18611 20.4088 8.0364C20.2738 8.20316 20.0753 8.29052 19.8688 8.29052Z" fill="black"/>
<path d="M42.8585 8.25094C46.4003 8.25094 49.2988 11.0383 49.4735 14.5404H7.12323C7.29794 11.0462 10.2044 8.25094 13.7382 8.25094H42.8585ZM42.8585 6.82153H13.7382C9.29118 6.82153 5.68588 10.4268 5.68588 14.8739V15.9618H50.9188V14.8739C50.9109 10.4268 47.3056 6.82153 42.8585 6.82153ZM54.5797 20.7345H2.01706C0.905295 20.7345 0 19.8292 0 18.7174V18.368C0 17.2562 0.905295 16.3509 2.01706 16.3509H54.5797C55.6915 16.3509 56.5968 17.2562 56.5968 18.368V18.7174C56.5968 19.8292 55.6915 20.7345 54.5797 20.7345ZM2.01706 17.7804C1.69147 17.7804 1.42941 18.0424 1.42941 18.368V18.7174C1.42941 19.043 1.69147 19.3051 2.01706 19.3051H54.5797C54.9053 19.3051 55.1674 19.043 55.1674 18.7174V18.368C55.1674 18.0424 54.9053 17.7804 54.5797 17.7804H2.01706Z" fill="black"/>
<path d="M41.4609 54C40.3968 54 39.5074 53.2376 39.3326 52.1974L39.1182 50.895C39.0865 50.7044 38.9276 50.5694 38.7371 50.5694H17.8597C17.6691 50.5694 17.5103 50.7044 17.4785 50.895L17.2641 52.1974C17.0894 53.2456 16.2 54 15.1359 54C13.9447 54 12.9759 53.0312 12.9759 51.84V51.1968C12.9759 50.9585 12.7853 50.7679 12.5471 50.7679C11.9674 50.7679 11.3877 50.625 10.8715 50.3629L10.5856 50.22C7.48059 48.6159 5.55089 45.4553 5.55089 41.9612V23.8553C5.55089 22.7674 5.13 21.7509 4.35971 20.9806L3.04147 19.6624H53.5474L52.2212 20.9885C51.4509 21.7588 51.03 22.7753 51.03 23.8632V41.2306C51.03 45.1774 48.8462 48.7509 45.3441 50.5615C45.0741 50.7044 44.7644 50.7759 44.4626 50.7759H44.0418C43.8035 50.7759 43.6129 50.9665 43.6129 51.2047V51.8479C43.6129 53.0312 42.6521 54 41.4609 54ZM17.8597 49.14H38.7371C39.6344 49.14 40.3809 49.7832 40.5318 50.6647L40.7462 51.9671C40.8018 52.3165 41.1035 52.5785 41.4609 52.5785C41.8579 52.5785 42.1915 52.2529 42.1915 51.8479V51.2047C42.1915 50.1803 43.0253 49.3465 44.0497 49.3465H44.4706C44.55 49.3465 44.6294 49.3306 44.6929 49.2909C47.7265 47.7265 49.6085 44.6374 49.6085 41.2306V23.8553C49.6085 22.8626 49.8706 21.9176 50.355 21.0838H6.24177C6.72618 21.9176 6.98824 22.8626 6.98824 23.8553V41.9612C6.98824 44.9153 8.62412 47.5915 11.2447 48.9494L11.5306 49.0923C11.8403 49.2512 12.1977 49.3385 12.5471 49.3385C13.5715 49.3385 14.4053 50.1723 14.4053 51.1968V51.84C14.4053 52.2371 14.7309 52.5706 15.1359 52.5706C15.4932 52.5706 15.795 52.3165 15.8506 51.9591L16.065 50.6568C16.2159 49.7832 16.9624 49.14 17.8597 49.14V49.14Z" fill="black"/>
<path d="M33.8056 44.9788H22.7912C21.87 44.9788 21.1235 44.2324 21.1235 43.3112V29.2236C21.1235 28.3024 21.87 27.5559 22.7912 27.5559H33.8056C34.7268 27.5559 35.4732 28.3024 35.4732 29.2236V43.3112C35.4732 44.2324 34.7268 44.9788 33.8056 44.9788ZM22.7912 28.9853C22.6562 28.9853 22.5529 29.0886 22.5529 29.2236V43.3112C22.5529 43.4462 22.6562 43.5494 22.7912 43.5494H33.8056C33.9406 43.5494 34.0438 43.4462 34.0438 43.3112V29.2236C34.0438 29.0886 33.9406 28.9853 33.8056 28.9853H22.7912Z" fill="black"/>
<path d="M31.7012 36.585H24.8956C24.1491 36.585 23.5456 35.9815 23.5456 35.235V31.3756C23.5456 30.6291 24.1491 30.0256 24.8956 30.0256H31.7012C32.4476 30.0256 33.0512 30.6291 33.0512 31.3756V35.235C33.0512 35.9735 32.4476 36.585 31.7012 36.585ZM24.975 35.1556H31.6218V31.455H24.975V35.1556ZM25.5626 42.795C24.2762 42.795 23.2279 41.7468 23.2279 40.4603C23.2279 39.1738 24.2762 38.1256 25.5626 38.1256C26.8491 38.1256 27.8974 39.1738 27.8974 40.4603C27.8974 41.7468 26.8571 42.795 25.5626 42.795ZM25.5626 39.0706C24.8003 39.0706 24.1809 39.69 24.1809 40.4523C24.1809 41.2147 24.8003 41.8421 25.5626 41.8421C26.325 41.8421 26.9444 41.2226 26.9444 40.4603C26.9444 39.6979 26.3329 39.0706 25.5626 39.0706ZM29.3506 41.7388H29.2632C28.9218 41.715 28.6121 41.5562 28.3818 41.3021C28.1594 41.04 28.0482 40.7144 28.0721 40.3729C28.1197 39.6662 28.7391 39.1341 29.4379 39.1818C30.1447 39.2294 30.6768 39.8488 30.6291 40.5476C30.5815 41.2226 30.0176 41.7388 29.3506 41.7388ZM29.3506 40.1268C29.1759 40.1268 29.0329 40.2618 29.025 40.4365C29.0171 40.5238 29.0488 40.6112 29.1044 40.6747C29.16 40.7382 29.2394 40.7779 29.3268 40.7859C29.5015 40.8018 29.6682 40.6588 29.6762 40.4841C29.6921 40.3015 29.5491 40.1426 29.3744 40.1347C29.3665 40.1268 29.3585 40.1268 29.3506 40.1268ZM32.3444 41.7388H32.2571C31.9156 41.715 31.6059 41.5562 31.3756 41.3021C31.1532 41.04 31.0421 40.7144 31.0659 40.3729C31.1135 39.6662 31.7329 39.1341 32.4318 39.1818C33.1385 39.2294 33.6706 39.8488 33.6229 40.5476C33.5753 41.2226 33.0115 41.7388 32.3444 41.7388ZM32.3444 40.1268C32.1697 40.1268 32.0268 40.2618 32.0188 40.4365C32.0109 40.5238 32.0426 40.6112 32.0982 40.6747C32.1538 40.7382 32.2332 40.7779 32.3206 40.7859C32.4953 40.8018 32.6621 40.6588 32.67 40.4841C32.6859 40.3015 32.5429 40.1426 32.3682 40.1347C32.3603 40.1268 32.3524 40.1268 32.3444 40.1268ZM13.1268 24.1412H6.15441C5.89235 24.1412 5.67794 23.9268 5.67794 23.6647C5.67794 23.4026 5.89235 23.1882 6.15441 23.1882H13.1268C13.3888 23.1882 13.6032 23.4026 13.6032 23.6647C13.6032 23.9268 13.3968 24.1412 13.1268 24.1412ZM13.1268 27.2779H6.15441C5.89235 27.2779 5.67794 27.0635 5.67794 26.8015C5.67794 26.5394 5.89235 26.325 6.15441 26.325H13.1268C13.3888 26.325 13.6032 26.5394 13.6032 26.8015C13.6032 27.0635 13.3968 27.2779 13.1268 27.2779ZM13.1268 33.5594H6.15441C5.89235 33.5594 5.67794 33.345 5.67794 33.0829C5.67794 32.8209 5.89235 32.6065 6.15441 32.6065H13.1268C13.3888 32.6065 13.6032 32.8209 13.6032 33.0829C13.6032 33.345 13.3968 33.5594 13.1268 33.5594ZM13.1268 30.4226H6.15441C5.89235 30.4226 5.67794 30.2082 5.67794 29.9462C5.67794 29.6841 5.89235 29.4697 6.15441 29.4697H13.1268C13.3888 29.4697 13.6032 29.6841 13.6032 29.9462C13.6032 30.2082 13.3968 30.4226 13.1268 30.4226ZM13.1268 39.8409H6.15441C5.89235 39.8409 5.67794 39.6265 5.67794 39.3644C5.67794 39.1023 5.89235 38.8879 6.15441 38.8879H13.1268C13.3888 38.8879 13.6032 39.1023 13.6032 39.3644C13.6032 39.6265 13.3968 39.8409 13.1268 39.8409ZM13.1268 46.1144H7.41706C7.155 46.1144 6.94059 45.9 6.94059 45.6379C6.94059 45.3759 7.155 45.1615 7.41706 45.1615H13.1268C13.3888 45.1615 13.6032 45.3759 13.6032 45.6379C13.6032 45.9 13.3968 46.1144 13.1268 46.1144ZM13.1268 36.6962H6.15441C5.89235 36.6962 5.67794 36.4818 5.67794 36.2197C5.67794 35.9576 5.89235 35.7432 6.15441 35.7432H13.1268C13.3888 35.7432 13.6032 35.9576 13.6032 36.2197C13.6032 36.4818 13.3968 36.6962 13.1268 36.6962ZM13.1268 42.9776H6.15441C5.89235 42.9776 5.67794 42.7632 5.67794 42.5012C5.67794 42.2391 5.89235 42.0247 6.15441 42.0247H13.1268C13.3888 42.0247 13.6032 42.2391 13.6032 42.5012C13.6032 42.7632 13.3968 42.9776 13.1268 42.9776Z" fill="black"/>
</svg>
