<svg width="54" height="54" viewBox="0 0 54 54" fill="none" xmlns="http://www.w3.org/2000/svg">
<path fill-rule="evenodd" clip-rule="evenodd" d="M27 54C41.902 54 54 41.902 54 27C54 12.098 41.902 0 27 0C12.098 0 0 12.098 0 27C0 41.902 12.098 54 27 54ZM43.945 51.052L46.117 53.224C46.507 53.614 47.141 53.614 47.531 53.224C47.922 52.833 47.922 52.2 47.531 51.81L45.36 49.638C44.969 49.248 44.336 49.248 43.945 49.638C43.555 50.028 43.555 50.662 43.945 51.052ZM7.933 53.173L10.105 51.002C10.495 50.611 10.495 49.978 10.105 49.587C9.715 49.197 9.081 49.197 8.691 49.587L6.519 51.759C6.129 52.149 6.129 52.783 6.519 53.173C6.909 53.564 7.543 53.564 7.933 53.173ZM2.079 29C3.073 41.536 13.331 51.48 26 51.98V48.978C14.988 48.484 6.072 39.879 5.09 29H2.079ZM48.91 29C47.928 39.879 39.012 48.484 28 48.978V51.98C40.669 51.48 50.927 41.536 51.921 29H48.91V29ZM5.055 50.395L7.226 48.224C7.616 47.833 7.616 47.2 7.226 46.809C6.836 46.419 6.202 46.419 5.812 46.809L3.64 48.981C3.25 49.371 3.25 50.005 3.64 50.395C4.031 50.786 4.664 50.786 5.055 50.395ZM46.723 48.173L48.895 50.345C49.285 50.735 49.919 50.735 50.309 50.345C50.7 49.955 50.7 49.321 50.309 48.931L48.138 46.759C47.747 46.369 47.114 46.369 46.723 46.759C46.333 47.149 46.333 47.783 46.723 48.173ZM49.602 45.395L51.774 47.567C52.164 47.957 52.798 47.957 53.188 47.567C53.578 47.177 53.578 46.543 53.188 46.153L51.016 43.981C50.626 43.591 49.992 43.591 49.602 43.981C49.212 44.371 49.212 45.005 49.602 45.395ZM2.276 47.517L4.448 45.345C4.838 44.955 4.838 44.321 4.448 43.931C4.058 43.54 3.424 43.54 3.034 43.931L0.862 46.102C0.472 46.493 0.472 47.126 0.862 47.517C1.252 47.907 1.886 47.907 2.276 47.517ZM29.294 36.685C29.565 37.108 29.722 37.61 29.722 38.15C29.722 39.652 28.502 40.872 27 40.872C25.498 40.872 24.278 39.652 24.278 38.15C24.278 37.61 24.435 37.108 24.706 36.685C25.003 36.22 24.868 35.601 24.403 35.303C23.939 35.006 23.319 35.141 23.022 35.606C22.551 36.34 22.278 37.213 22.278 38.15C22.278 40.756 24.394 42.872 27 42.872C29.606 42.872 31.722 40.756 31.722 38.15C31.722 37.213 31.449 36.34 30.978 35.606C30.681 35.141 30.061 35.006 29.597 35.303C29.132 35.601 28.997 36.22 29.294 36.685ZM28 38.436V35C28 34.448 27.552 34 27 34C26.448 34 26 34.448 26 35V38.436C26 38.988 26.448 39.436 27 39.436C27.552 39.436 28 38.988 28 38.436ZM36 3.672C33.207 2.592 30.172 2 27 2C23.828 2 20.793 2.592 18 3.672V20C18 24.706 22.047 28.5 27 28.5C31.953 28.5 36 24.706 36 20V3.672V3.672ZM16 4.547C7.711 8.62 2 17.148 2 27H5C5 18.864 9.426 11.753 16 7.947V4.547V4.547ZM38 4.547V7.947C44.574 11.753 49 18.864 49 27H52C52 17.148 46.289 8.62 38 4.547V4.547ZM27 13C23.137 13 20 16.137 20 20C20 23.863 23.137 27 27 27C30.863 27 34 23.863 34 20C34 16.137 30.863 13 27 13ZM0.862 7.969L3.034 10.141C3.424 10.531 4.058 10.531 4.448 10.141C4.838 9.75 4.838 9.117 4.448 8.726L2.276 6.555C1.886 6.164 1.252 6.164 0.862 6.555C0.472 6.945 0.472 7.579 0.862 7.969V7.969ZM51.016 10.09L53.188 7.919C53.578 7.528 53.578 6.895 53.188 6.504C52.798 6.114 52.164 6.114 51.774 6.504L49.602 8.676C49.212 9.066 49.212 9.7 49.602 10.09C49.992 10.481 50.626 10.481 51.016 10.09ZM48.138 7.312L50.309 5.14C50.7 4.75 50.7 4.117 50.309 3.726C49.919 3.336 49.285 3.336 48.895 3.726L46.723 5.898C46.333 6.288 46.333 6.922 46.723 7.312C47.114 7.702 47.747 7.702 48.138 7.312ZM3.64 5.09L5.812 7.262C6.202 7.652 6.836 7.652 7.226 7.262C7.616 6.872 7.616 6.238 7.226 5.848L5.055 3.676C4.664 3.286 4.031 3.286 3.64 3.676C3.25 4.066 3.25 4.7 3.64 5.09ZM6.519 2.312L8.691 4.484C9.081 4.874 9.715 4.874 10.105 4.484C10.495 4.093 10.495 3.46 10.105 3.07L7.933 0.898C7.543 0.508 6.909 0.508 6.519 0.898C6.129 1.288 6.129 1.922 6.519 2.312ZM45.36 4.433L47.531 2.262C47.922 1.871 47.922 1.238 47.531 0.847C47.141 0.457 46.507 0.457 46.117 0.847L43.945 3.019C43.555 3.409 43.555 4.043 43.945 4.433C44.336 4.824 44.969 4.824 45.36 4.433Z" fill="black"/>
</svg>
