<svg width="54" height="54" viewBox="0 0 54 54" fill="none" xmlns="http://www.w3.org/2000/svg">
<g clip-path="url(#clip0_303_2352)">
<path d="M24.3008 47.7007H11.7022C11.2055 47.7007 10.8023 48.1029 10.8023 48.6006C10.8023 49.0982 11.2055 49.5005 11.7022 49.5005H24.3008C24.7975 49.5005 25.2007 49.0982 25.2007 48.6006C25.2007 48.1029 24.7975 47.7007 24.3008 47.7007Z" fill="black"/>
<path d="M24.3008 44.1011H11.7022C11.2055 44.1011 10.8023 44.5033 10.8023 45.001C10.8023 45.4986 11.2055 45.9009 11.7022 45.9009H24.3008C24.7975 45.9009 25.2007 45.4986 25.2007 45.001C25.2007 44.5033 24.7975 44.1011 24.3008 44.1011Z" fill="black"/>
<path d="M18.0015 20.7039C13.0395 20.7039 9.00255 25.1448 9.00255 30.6027C9.00255 36.0606 13.0395 40.5015 18.0015 40.5015C22.9635 40.5015 27.0004 36.0606 27.0004 30.6027C27.0004 25.1448 22.9635 20.7039 18.0015 20.7039ZM18.0015 38.7018C14.0321 38.7018 10.8023 35.0689 10.8023 30.6027C10.8023 26.1365 14.0321 22.5036 18.0015 22.5036C21.9709 22.5036 25.2007 26.1365 25.2007 30.6027C25.2007 35.0689 21.9709 38.7018 18.0015 38.7018Z" fill="black"/>
<path d="M18.0015 24.3035C16.0163 24.3035 14.4019 25.9179 14.4019 27.903C14.4019 29.8882 16.0163 31.5026 18.0015 31.5026C19.9867 31.5026 21.6011 29.8882 21.6011 27.903C21.6011 25.9179 19.9858 24.3035 18.0015 24.3035ZM18.0015 29.7028C17.0089 29.7028 16.2017 28.8956 16.2017 27.903C16.2017 26.9105 17.0089 26.1033 18.0015 26.1033C18.9941 26.1033 19.8013 26.9105 19.8013 27.903C19.8013 28.8956 18.9941 29.7028 18.0015 29.7028Z" fill="black"/>
<path d="M53.0974 52.2001H52.1975V49.5005H48.5979V45.9009H46.7981V32.4025V27.0031V23.9308L49.523 21.206C51.8286 18.9013 53.0974 15.8372 53.0974 12.5769V9.90508V8.10529V5.31022C53.0974 3.61302 52.2767 2.0616 50.9035 1.1599C48.8193 -0.208838 46.4778 -0.372619 44.4773 0.705455C42.5785 1.73134 41.3988 3.7039 41.3988 5.85645V21.6955L32.3998 30.6945V30.6036C32.3998 24.5743 28.6707 19.4062 23.4009 17.2653V16.2052C23.4009 13.2275 20.9793 10.8059 18.0015 10.8059C15.0237 10.8059 12.6021 13.2275 12.6021 16.2052V17.2653C8.90176 18.769 5.9744 21.7675 4.55167 25.5075C1.744 27.112 0.00359964 30.0564 0.00359964 33.3033C0.00359964 36.1424 1.34804 38.7809 3.60318 40.4799V43.2021V45.0019V54.0008H9.00255V52.201H27.0005V54.0008H32.3998V45.0019V43.2021V38.3301L41.3988 29.3311V32.4034V45.9018H39.599V49.5014H35.9994V52.201H35.0995C34.6028 52.201 34.1996 52.6033 34.1996 53.1009C34.1996 53.5986 34.6028 54.0008 35.0995 54.0008H35.9994H52.1975H53.0974C53.5941 54.0008 53.9973 53.5986 53.9973 53.1009C53.9973 52.6033 53.5941 52.2001 53.0974 52.2001ZM44.9984 30.6027H43.1986V28.8029H44.9984V30.6027ZM47.698 8.10529V9.90508V11.0857C47.698 12.5409 47.3822 13.969 46.7981 15.2856V5.85555C46.7981 5.60808 46.9997 5.40561 47.2481 5.40561C47.4965 5.40561 47.698 5.60808 47.698 5.85555V8.10529ZM51.2976 12.5769C51.2976 15.3557 50.215 17.9681 48.2506 19.9335L46.7981 21.3859V18.7286C48.5412 16.5607 49.4978 13.8601 49.4978 11.0857V9.90508H51.2976V12.5769ZM43.1986 5.85555C43.1986 4.36623 44.0166 2.99929 45.3322 2.28837C46.7306 1.53336 48.4018 1.67014 49.9154 2.66363C50.7685 3.22336 51.2976 4.23754 51.2976 5.30932V8.10439H49.4978V5.85465C49.4978 4.6137 48.4881 3.60492 47.2481 3.60492C46.008 3.60492 44.9984 4.6137 44.9984 5.85465V18.0716V25.7297V27.0022H43.1986V19.8939V5.85555V5.85555ZM14.4019 16.6723V16.2043C14.4019 14.2192 16.0163 12.6048 18.0015 12.6048C19.9867 12.6048 21.6011 14.2192 21.6011 16.2043V16.6723C21.5282 16.6534 21.4544 16.6399 21.3815 16.6219C21.1601 16.5679 20.9406 16.5121 20.7156 16.4698C20.3601 16.4005 20.0038 16.3483 19.6456 16.306C19.5187 16.2916 19.3909 16.2799 19.2623 16.2691C18.842 16.2313 18.4218 16.2052 18.0006 16.2052C17.5794 16.2052 17.1592 16.2313 16.7389 16.2691C16.6112 16.2799 16.4834 16.2916 16.3556 16.306C15.9983 16.3483 15.6411 16.4005 15.2856 16.4698C15.0606 16.513 14.8411 16.5688 14.6197 16.6219C14.5477 16.6399 14.4739 16.6525 14.4019 16.6723ZM1.80339 33.3024C1.80339 31.4198 2.5305 29.6587 3.78676 28.3421C3.76606 28.4717 3.75706 28.6013 3.73906 28.7309C3.71387 28.9235 3.68597 29.1142 3.66887 29.3095C3.62928 29.7397 3.60318 30.1707 3.60318 30.6027V38.0628C2.45491 36.7633 1.80339 35.0787 1.80339 33.3024ZM5.40297 52.2001V45.001H7.20276V52.2001H5.40297ZM30.6 52.2001H28.8002V45.001H30.6V52.2001ZM30.6 43.2012H27.0005V50.4004H9.00255V43.2012H5.40297V41.7209V30.6027C5.40297 30.2139 5.42637 29.8315 5.46146 29.4517C5.48036 29.2474 5.51186 29.044 5.54155 28.8407C5.56405 28.6841 5.58565 28.5266 5.61354 28.3718C5.66304 28.1019 5.72153 27.8328 5.78992 27.5655C5.80792 27.4944 5.82592 27.4233 5.84482 27.3522C5.92671 27.049 6.0185 26.7466 6.12379 26.4461C7.38724 22.8456 10.2372 19.9938 13.8359 18.7268C14.1428 18.6188 14.4523 18.5252 14.7628 18.4415C14.8204 18.4262 14.8789 18.4118 14.9365 18.3965C15.2235 18.3236 15.5115 18.2606 15.8004 18.2093C15.9092 18.1904 16.0199 18.1751 16.1306 18.1589C16.3844 18.1202 16.6373 18.0833 16.8919 18.0599C17.0881 18.0428 17.2879 18.0383 17.4868 18.0302C17.8314 18.0158 18.1761 18.0158 18.5207 18.0302C18.7196 18.0383 18.9194 18.0428 19.1156 18.0599C19.3693 18.0833 19.6231 18.1193 19.8769 18.1589C19.9867 18.1751 20.0983 18.1904 20.2071 18.2093C20.496 18.2615 20.784 18.3245 21.0701 18.3965C21.1286 18.4109 21.1862 18.4262 21.2438 18.4415C21.5543 18.5252 21.8638 18.6188 22.1707 18.7268C27.0733 20.4527 30.6018 25.1169 30.6018 30.6027V32.4933V40.129V43.2012H30.6ZM32.3998 33.2385L41.3988 24.2395V26.7853L32.3998 35.7843V33.2385ZM43.1986 32.4025H44.9984V45.9009H43.1986V32.4025ZM41.3988 47.7007H46.7981V49.5005H41.3988V47.7007ZM37.7992 52.2001V51.3003H39.599H48.5979H50.3977V52.2001H37.7992Z" fill="black"/>
</g>
<defs>
<clipPath id="clip0_303_2352">
<rect width="54" height="54" fill="white"/>
</clipPath>
</defs>
</svg>
